<?xml version="1.0" encoding="UTF-8" standalone="no"?>
<svg
   xmlns:dc="http://purl.org/dc/elements/1.1/"
   xmlns:cc="http://creativecommons.org/ns#"
   xmlns:rdf="http://www.w3.org/1999/02/22-rdf-syntax-ns#"
   xmlns:svg="http://www.w3.org/2000/svg"
   xmlns="http://www.w3.org/2000/svg"
   viewBox="0 0 307.01334 307.01334"
   height="307.01334"
   width="307.01334"
   xml:space="preserve"
   id="svg2"
   version="1.1"><metadata
     id="metadata8"><rdf:RDF><cc:Work
         rdf:about=""><dc:format>image/svg+xml</dc:format><dc:type
           rdf:resource="http://purl.org/dc/dcmitype/StillImage" /></cc:Work></rdf:RDF></metadata><defs
     id="defs6"><clipPath
       id="clipPath24"
       clipPathUnits="userSpaceOnUse"><path
         id="path22"
         d="m 1542.48,1040.26 h -5.56 c -8.61,0 -15.6,6.97 -15.6,15.59 0,8.62 6.99,15.62 15.6,15.62 h 5.56 c 8.62,0 15.62,-7 15.62,-15.62 0,-8.62 -7,-15.59 -15.62,-15.59 z m -36.78,53.8 H 899.059 c -8.625,0 -15.618,7 -15.618,15.62 0,8.61 6.993,15.62 15.618,15.62 h 43.238 520.163 43.24 c 8.63,0 15.62,-7.01 15.62,-15.62 0,-8.62 -6.99,-15.62 -15.62,-15.62 z m -84.08,-53.8 H 694.254 c -8.617,0 -15.606,6.97 -15.606,15.59 0,8.62 6.989,15.62 15.606,15.62 h 139.367 31.688 75.211 64.16 61.11 45.79 55.22 68.71 1.34 13.72 87.28 68.71 15.06 c 8.63,0 15.62,-7 15.62,-15.62 0,-8.62 -6.99,-15.59 -15.62,-15.59 z M 1253.59,894.379 c 0,-8.629 -6.98,-15.617 -15.61,-15.617 h -44.48 c -8.63,0 -15.62,6.988 -15.62,15.617 0,8.621 6.99,15.609 15.62,15.609 h 44.48 c 8.63,0 15.61,-6.988 15.61,-15.609 z m -32.67,-69.098 h -19.14 c -8.43,0 -15.28,6.828 -15.28,15.27 0,8.437 6.85,15.269 15.28,15.269 h 19.14 c 8.44,0 15.28,-6.832 15.28,-15.269 0,-8.442 -6.84,-15.27 -15.28,-15.27 z m -38.27,-54.172 h -19.14 c -8.43,0 -15.28,6.84 -15.28,15.282 0,8.449 6.85,15.289 15.28,15.289 h 19.14 c 8.44,0 15.29,-6.84 15.29,-15.289 0,-8.442 -6.85,-15.282 -15.29,-15.282 z m -0.87,-54.371 h -6.38 c -8.92,0 -16.15,7.242 -16.15,16.16 0,8.93 7.23,16.161 16.15,16.161 h 6.38 c 8.92,0 16.16,-7.231 16.16,-16.161 0,-8.918 -7.24,-16.16 -16.16,-16.16 z m -57.4,231.383 c 0,8.617 6.98,15.609 15.61,15.609 h 42.32 c 8.63,0 15.63,-6.992 15.63,-15.609 0,-8.633 -7,-15.621 -15.63,-15.621 h -42.32 c -8.63,0 -15.61,6.988 -15.61,15.621 z m -43.16,53.899 c 0,8.63 6.99,15.62 15.61,15.62 h 43.08 c 8.62,0 15.61,-6.99 15.61,-15.62 0,-8.61 -6.99,-15.61 -15.61,-15.61 h -43.08 c -8.62,0 -15.61,7 -15.61,15.61 z m -22.49,-69.52 h -5.89 c -8.62,0 -15.6,6.988 -15.6,15.621 0,8.617 6.98,15.609 15.6,15.609 h 5.89 c 8.62,0 15.62,-6.992 15.62,-15.609 0,-8.633 -7,-15.621 -15.62,-15.621 z m 0,-53.738 h -5.06 c -8.62,0 -15.61,6.988 -15.61,15.617 0,8.621 6.99,15.609 15.61,15.609 h 5.06 c 8.62,0 15.62,-6.988 15.62,-15.609 0,-8.629 -7,-15.617 -15.62,-15.617 z M 940.773,986.41 H 695.496 c -8.625,0 -15.613,7 -15.613,15.61 0,8.63 6.988,15.62 15.613,15.62 h 245.277 c 8.622,0 15.614,-6.99 15.614,-15.62 0,-8.61 -6.992,-15.61 -15.614,-15.61 z M 864.07,932.672 H 696.16 c -8.621,0 -15.609,6.988 -15.609,15.609 0,8.629 6.988,15.617 15.609,15.617 h 167.91 c 8.625,0 15.614,-6.988 15.614,-15.617 0,-8.621 -6.989,-15.609 -15.614,-15.609 z m -1.242,-53.91 H 740.473 c -8.618,0 -15.606,6.988 -15.606,15.617 0,8.621 6.988,15.609 15.606,15.609 h 122.355 c 8.621,0 15.61,-6.988 15.61,-15.609 0,-8.629 -6.989,-15.617 -15.61,-15.617 z M 745.945,825.281 h -5.797 c -8.437,0 -15.281,6.828 -15.281,15.27 0,8.437 6.844,15.269 15.281,15.269 h 5.797 c 8.446,0 15.285,-6.832 15.285,-15.269 0,-8.442 -6.839,-15.27 -15.285,-15.27 z M 734.098,1125.3 h 45.156 c 8.621,0 15.605,-7.01 15.605,-15.62 0,-8.62 -6.984,-15.62 -15.605,-15.62 h -45.156 c -8.618,0 -15.618,7 -15.618,15.62 0,8.61 7,15.62 15.618,15.62 z m 53.011,269.12 h 22.786 c 8.625,0 15.613,-6.99 15.613,-15.62 0,-8.61 -6.988,-15.6 -15.613,-15.6 h -22.786 c -8.617,0 -15.605,6.99 -15.605,15.6 0,8.63 6.988,15.62 15.605,15.62 z m 47.555,53.83 h 8.035 c 8.621,0 15.617,-6.98 15.617,-15.62 0,-8.62 -6.996,-15.6 -15.617,-15.6 h -8.035 c -8.625,0 -15.617,6.98 -15.617,15.6 0,8.64 6.992,15.62 15.617,15.62 z m 38.277,-53.83 H 974.73 c 8.715,0 15.79,-6.99 15.79,-15.62 0,-8.61 -7.075,-15.6 -15.79,-15.6 H 872.941 c -8.722,0 -15.789,6.99 -15.789,15.6 0,8.63 7.067,15.62 15.789,15.62 z m 82.036,38.21 c 0,-8.62 -6.989,-15.6 -15.614,-15.6 h -28.91 c -8.617,0 -15.613,6.98 -15.613,15.6 0,8.64 6.996,15.62 15.613,15.62 h 28.91 c 8.625,0 15.614,-6.98 15.614,-15.62 z m -49.493,69.44 h 57.739 c 8.617,0 15.617,-6.98 15.617,-15.59 0,-8.64 -7,-15.62 -15.617,-15.62 h -57.739 c -8.621,0 -15.617,6.98 -15.617,15.62 0,8.61 6.996,15.59 15.617,15.59 z m 14.168,53.84 h 18.141 c 8.617,0 15.613,-6.99 15.613,-15.61 0,-8.62 -6.996,-15.62 -15.613,-15.62 h -18.141 c -8.632,0 -15.613,7 -15.613,15.62 0,8.62 6.981,15.61 15.613,15.61 z m 39.016,-246.53 H 821.91 c -8.629,0 -15.617,6.98 -15.617,15.6 0,8.64 6.988,15.62 15.617,15.62 h 136.758 c 8.617,0 15.613,-6.98 15.613,-15.62 0,-8.62 -6.996,-15.6 -15.613,-15.6 z M 1300.02,963.73 h 84.08 c 8.62,0 15.62,-6.992 15.62,-15.609 0,-8.633 -7,-15.621 -15.62,-15.621 h -84.08 c -8.62,0 -15.61,6.988 -15.61,15.621 0,8.617 6.99,15.609 15.61,15.609 z m 85.41,-84.968 h -47.47 c -8.62,0 -15.61,6.988 -15.61,15.617 0,8.621 6.99,15.609 15.61,15.609 h 47.47 c 8.62,0 15.61,-6.988 15.61,-15.609 0,-8.629 -6.99,-15.617 -15.61,-15.617 z m 37.15,-38.211 c 0,-8.442 -6.85,-15.27 -15.28,-15.27 h -8.86 c -8.45,0 -15.3,6.828 -15.3,15.27 0,8.437 6.85,15.269 15.3,15.269 h 8.86 c 8.43,0 15.28,-6.832 15.28,-15.269 z m 120.14,15.269 h 10.86 c 8.45,0 15.29,-6.832 15.29,-15.269 0,-8.442 -6.84,-15.27 -15.29,-15.27 h -10.86 c -8.43,0 -15.28,6.828 -15.28,15.27 0,8.437 6.85,15.269 15.28,15.269 z m -447.63,538.6 h 7.8 c 8.61,0 15.6,-6.99 15.6,-15.62 0,-8.61 -6.99,-15.6 -15.6,-15.6 h -7.8 c -8.63,0 -15.61,6.99 -15.61,15.6 0,8.63 6.98,15.62 15.61,15.62 z m 6.79,107.65 h 160.54 c 8.62,0 15.61,-6.98 15.61,-15.59 0,-8.64 -6.99,-15.62 -15.61,-15.62 h -160.54 c -8.61,0 -15.61,6.98 -15.61,15.62 0,8.61 7,15.59 15.61,15.59 z m 0,53.84 h 117.54 c 8.63,0 15.63,-6.99 15.63,-15.61 0,-8.62 -7,-15.62 -15.63,-15.62 h -117.54 c -8.61,0 -15.61,7 -15.61,15.62 0,8.62 7,15.61 15.61,15.61 z m 76.88,53.81 h 82.74 c 8.64,0 15.62,-6.97 15.62,-15.59 0,-8.63 -6.98,-15.62 -15.62,-15.62 h -82.74 c -8.63,0 -15.62,6.99 -15.62,15.62 0,8.62 6.99,15.59 15.62,15.59 z m 0,53.83 h 82.74 c 8.64,0 15.62,-6.98 15.62,-15.6 0,-8.64 -6.98,-15.61 -15.62,-15.61 h -82.74 c -8.63,0 -15.62,6.97 -15.62,15.61 0,8.62 6.99,15.6 15.62,15.6 z m 43.16,-246.52 h -41.34 c -8.63,0 -15.61,6.98 -15.61,15.6 0,8.64 6.98,15.62 15.61,15.62 h 41.34 c 8.62,0 15.61,-6.98 15.61,-15.62 0,-8.62 -6.99,-15.6 -15.61,-15.6 z m -1.5,-53.83 h -38.85 c -8.61,0 -15.61,6.99 -15.61,15.6 0,8.63 7,15.62 15.61,15.62 h 38.85 c 8.63,0 15.61,-6.99 15.61,-15.62 0,-8.61 -6.98,-15.6 -15.61,-15.6 z m 424.36,-307.35 c 0,8.62 6.99,15.62 15.61,15.62 h 51.42 c 1.05,7.49 1.97,15.03 2.73,22.59 h -134.83 c -8.62,0 -15.61,7 -15.61,15.62 0,8.61 6.99,15.62 15.61,15.62 h 137.09 c 0.34,7.5 0.53,15.03 0.57,22.58 h -42.64 -36.12 -46.38 -28.85 -106.67 -46.4 -28.83 -7.27 -28.84 -46.39 -106.68 -28.83 -46.39 -36.12 -181.901 c -8.625,0 -15.618,7.01 -15.618,15.62 0,8.63 6.993,15.62 15.618,15.62 h 181.891 0.01 36.12 v 0 h 46.39 v 0 h 132.68 2.82 c 0.01,0 0.01,0 0.01,0 h 46.39 v 0 h 36.11 v 0 h 181.9 v 0 h 153.34 c -0.37,7.57 -0.88,15.11 -1.53,22.6 h -82.21 -36.12 -46.38 -28.84 -106.68 -46.39 -28.84 -7.27 -28.84 -46.39 -106.68 -28.83 -46.39 -36.12 -181.905 c -8.617,0 -15.606,6.99 -15.606,15.61 0,8.62 6.989,15.62 15.606,15.62 H 1039.2 c 0.01,0 0.01,0 0.01,0 h 36.12 v 0 h 46.39 v 0 h 132.68 2.83 v 0 h 46.39 v 0 h 36.11 v 0 h 181.9 0.01 189.9 c -1.09,7.58 -2.34,15.12 -3.74,22.61 h -131.8 -46.4 -28.83 -189.19 -28.84 -46.38 -218.03 c -8.62,0 -15.6,6.98 -15.6,15.59 0,8.64 6.98,15.62 15.6,15.62 h 218.02 c 0.01,0 0.01,0 0.01,0 h 46.38 v 0 h 134.44 83.58 c 0,0 0,0 0.01,0 h 200.3 c -1.86,7.61 -3.88,15.13 -6.05,22.61 h -79.73 -46.37 -28.84 -189.19 -28.84 -46.39 -218.01 c -8.63,0 -15.62,6.98 -15.62,15.6 0,8.64 6.99,15.62 15.62,15.62 h 218 0.01 46.39 v 0 h 134.42 83.6 c 0,0 0,0 0.01,0 h 144.88 c -2.69,7.62 -5.56,15.15 -8.57,22.6 h -42.2 -75.23 -218.02 c -8.63,0 -15.62,6.99 -15.62,15.6 0,8.63 6.99,15.62 15.62,15.62 h 218.01 c 0,0 0,0 0.01,0 h 103.7 c -3.64,7.64 -7.43,15.18 -11.39,22.61 h -17.08 -75.23 -218.02 c -8.63,0 -15.62,6.98 -15.62,15.6 0,8.64 6.99,15.62 15.62,15.62 h 218.01 c 0,0 0,0 0.01,0 h 74.37 c -4.73,7.66 -9.63,15.19 -14.7,22.61 H 1419.8 c -8.62,0 -15.61,7 -15.61,15.62 0,8.61 6.99,15.59 15.61,15.59 h 175.83 c -6.08,7.71 -12.36,15.25 -18.83,22.61 h -278.27 c -8.63,0 -15.61,7 -15.61,15.62 0,8.62 6.98,15.61 15.61,15.61 h 248.69 c -7.93,7.77 -16.11,15.3 -24.5,22.6 h -181.78 c -8.63,0 -15.62,6.99 -15.62,15.62 0,8.62 6.99,15.59 15.62,15.59 h 142.54 c -10.92,7.93 -22.12,15.47 -33.61,22.62 h -108.93 c -8.63,0 -15.62,6.99 -15.62,15.61 0,8.62 6.99,15.6 15.62,15.6 h 51.58 c -17.96,8.49 -36.43,16.04 -55.35,22.61 H 1229.7 c -8.64,0 -15.62,7 -15.62,15.62 0,4.59 1.99,8.7 5.15,11.57 -22.27,2.65 -44.93,4.04 -67.92,4.04 -124.1,0 -238.865,-39.93 -332.158,-107.67 h 16.918 c 8.625,0 15.614,-6.97 15.614,-15.59 0,-8.63 -6.989,-15.62 -15.614,-15.62 h -56.172 c -119.277,-103.79 -194.671,-256.7 -194.671,-427.22 0,-312.622 253.441,-566.079 566.083,-566.079 166.32,0 315.88,71.73 419.45,185.937 -8.23,0.43 -14.77,7.223 -14.77,15.571 0,8.621 6.98,15.621 15.6,15.621 h 25.48 c 18.81,24 35.71,49.539 50.51,76.422 h -146.23 c -8.62,0 -15.62,6.988 -15.62,15.617 0,8.621 7,15.609 15.62,15.609 h 162.18 c 3.49,7.422 6.84,14.922 10.02,22.512 h -29.39 -181.9 c -8.63,0 -15.62,6.988 -15.62,15.621 0,8.617 6.99,15.609 15.62,15.609 h 181.89 c 0.01,0 0.01,0 0.01,0 h 36.11 v 0 h 5.31 c 2.63,7.489 5.09,15.059 7.42,22.68 h -34.26 -106.69 -28.84 -46.37 -36.13 -181.89 c -8.63,0 -15.63,7 -15.63,15.61 0,8.63 7,15.62 15.63,15.62 h 181.89 v 0 h 36.13 v 0 h 46.37 v 0 h 132.69 2.83 c 0,0 0,0 0.01,0 h 42.78 c 1.81,7.47 3.46,15.01 4.97,22.62 h -46.1 c -8.62,0 -15.61,6.97 -15.61,15.59 z" /></clipPath><linearGradient
       id="linearGradient34"
       spreadMethod="pad"
       gradientTransform="matrix(755.453,827.022,827.022,-755.453,775.285,739.65)"
       gradientUnits="userSpaceOnUse"
       y2="0"
       x2="1"
       y1="0"
       x1="0"><stop
         id="stop26"
         offset="0"
         style="stop-opacity:1;stop-color:#50b6ea" /><stop
         id="stop28"
         offset="0.102151"
         style="stop-opacity:1;stop-color:#50b6ea" /><stop
         id="stop30"
         offset="0.887097"
         style="stop-opacity:1;stop-color:#212752" /><stop
         id="stop32"
         offset="1"
         style="stop-opacity:1;stop-color:#212752" /></linearGradient></defs><g
     transform="matrix(1.3333333,0,0,-1.3333333,0,307.01333)"
     id="g10"><g
       transform="scale(0.1)"
       id="g12"><path
         id="path14"
         style="fill:#be2024;fill-opacity:1;fill-rule:nonzero;stroke:none"
         d="m 1151.3,49.7109 c -148.69,0 -292.972,29.1172 -428.812,86.5781 -65.281,27.609 -128.246,61.789 -187.136,101.57 -58.321,39.403 -113.164,84.653 -163.004,134.512 -49.832,49.82 -95.082,104.66 -134.485,162.969 -39.789,58.898 -73.961,121.871 -101.57,187.16 -57.461,135.828 -86.5899,280.1 -86.5899,428.81 0,148.69 29.1289,292.96 86.5899,428.8 27.609,65.28 61.781,128.26 101.57,187.15 39.403,58.31 84.653,113.15 134.485,162.98 49.84,49.85 104.683,95.1 163.004,134.5 58.89,39.78 121.855,73.96 187.136,101.56 135.84,57.48 280.122,86.59 428.812,86.59 148.69,0 292.97,-29.11 428.81,-86.59 65.28,-27.6 128.25,-61.78 187.14,-101.56 58.32,-39.4 113.16,-84.65 162.99,-134.5 49.85,-49.83 95.09,-104.67 134.5,-162.98 39.78,-58.89 73.95,-121.87 101.58,-187.15 57.45,-135.84 86.58,-280.11 86.58,-428.8 0,-148.71 -29.13,-292.982 -86.58,-428.81 -27.63,-65.289 -61.8,-128.262 -101.58,-187.16 -39.41,-58.309 -84.65,-113.149 -134.5,-162.969 -49.83,-49.859 -104.67,-95.109 -162.99,-134.512 -58.89,-39.781 -121.86,-73.961 -187.14,-101.57 C 1444.27,78.8281 1299.99,49.7109 1151.3,49.7109" /><path
         id="path16"
         style="fill:#ffffff;fill-opacity:1;fill-rule:nonzero;stroke:none"
         d="m 1718.67,1391.02 c -15.44,36.48 -34.54,71.68 -56.79,104.6 -22.01,32.61 -47.3,63.24 -75.16,91.11 -27.85,27.86 -58.5,53.15 -91.1,75.16 -32.92,22.24 -68.11,41.34 -104.61,56.79 -75.95,32.11 -156.61,48.41 -239.71,48.41 -83.11,0 -163.757,-16.3 -239.706,-48.41 -36.5,-15.45 -71.696,-34.55 -104.621,-56.79 -32.598,-22.01 -63.246,-47.3 -91.098,-75.16 -27.852,-27.87 -53.148,-58.5 -75.168,-91.11 -22.234,-32.92 -41.344,-68.12 -56.781,-104.6 -32.129,-75.97 -48.414,-156.62 -48.414,-239.73 0,-83.11 16.285,-163.751 48.414,-239.688 15.437,-36.524 34.547,-71.711 56.781,-104.633 22.02,-32.59 47.316,-63.25 75.168,-91.09 27.852,-27.859 58.5,-53.149 91.098,-75.16 32.925,-22.25 68.121,-41.348 104.621,-56.797 75.949,-32.113 156.596,-48.402 239.706,-48.402 83.1,0 163.76,16.289 239.71,48.402 36.5,15.449 71.69,34.547 104.61,56.797 32.6,22.011 63.25,47.301 91.1,75.16 27.86,27.84 53.15,58.5 75.16,91.09 22.25,32.922 41.35,68.109 56.79,104.633 32.13,75.937 48.41,156.578 48.41,239.688 0,83.11 -16.28,163.76 -48.41,239.73" /><g
         id="g18"><g
           clip-path="url(#clipPath24)"
           id="g20"><path
             id="path36"
             style="fill:url(#linearGradient34);fill-opacity:1;fill-rule:nonzero;stroke:none"
             d="m 1542.48,1040.26 h -5.56 c -8.61,0 -15.6,6.97 -15.6,15.59 0,8.62 6.99,15.62 15.6,15.62 h 5.56 c 8.62,0 15.62,-7 15.62,-15.62 0,-8.62 -7,-15.59 -15.62,-15.59 z m -36.78,53.8 H 899.059 c -8.625,0 -15.618,7 -15.618,15.62 0,8.61 6.993,15.62 15.618,15.62 h 43.238 520.163 43.24 c 8.63,0 15.62,-7.01 15.62,-15.62 0,-8.62 -6.99,-15.62 -15.62,-15.62 z m -84.08,-53.8 H 694.254 c -8.617,0 -15.606,6.97 -15.606,15.59 0,8.62 6.989,15.62 15.606,15.62 h 139.367 31.688 75.211 64.16 61.11 45.79 55.22 68.71 1.34 13.72 87.28 68.71 15.06 c 8.63,0 15.62,-7 15.62,-15.62 0,-8.62 -6.99,-15.59 -15.62,-15.59 z M 1253.59,894.379 c 0,-8.629 -6.98,-15.617 -15.61,-15.617 h -44.48 c -8.63,0 -15.62,6.988 -15.62,15.617 0,8.621 6.99,15.609 15.62,15.609 h 44.48 c 8.63,0 15.61,-6.988 15.61,-15.609 z m -32.67,-69.098 h -19.14 c -8.43,0 -15.28,6.828 -15.28,15.27 0,8.437 6.85,15.269 15.28,15.269 h 19.14 c 8.44,0 15.28,-6.832 15.28,-15.269 0,-8.442 -6.84,-15.27 -15.28,-15.27 z m -38.27,-54.172 h -19.14 c -8.43,0 -15.28,6.84 -15.28,15.282 0,8.449 6.85,15.289 15.28,15.289 h 19.14 c 8.44,0 15.29,-6.84 15.29,-15.289 0,-8.442 -6.85,-15.282 -15.29,-15.282 z m -0.87,-54.371 h -6.38 c -8.92,0 -16.15,7.242 -16.15,16.16 0,8.93 7.23,16.161 16.15,16.161 h 6.38 c 8.92,0 16.16,-7.231 16.16,-16.161 0,-8.918 -7.24,-16.16 -16.16,-16.16 z m -57.4,231.383 c 0,8.617 6.98,15.609 15.61,15.609 h 42.32 c 8.63,0 15.63,-6.992 15.63,-15.609 0,-8.633 -7,-15.621 -15.63,-15.621 h -42.32 c -8.63,0 -15.61,6.988 -15.61,15.621 z m -43.16,53.899 c 0,8.63 6.99,15.62 15.61,15.62 h 43.08 c 8.62,0 15.61,-6.99 15.61,-15.62 0,-8.61 -6.99,-15.61 -15.61,-15.61 h -43.08 c -8.62,0 -15.61,7 -15.61,15.61 z m -22.49,-69.52 h -5.89 c -8.62,0 -15.6,6.988 -15.6,15.621 0,8.617 6.98,15.609 15.6,15.609 h 5.89 c 8.62,0 15.62,-6.992 15.62,-15.609 0,-8.633 -7,-15.621 -15.62,-15.621 z m 0,-53.738 h -5.06 c -8.62,0 -15.61,6.988 -15.61,15.617 0,8.621 6.99,15.609 15.61,15.609 h 5.06 c 8.62,0 15.62,-6.988 15.62,-15.609 0,-8.629 -7,-15.617 -15.62,-15.617 z M 940.773,986.41 H 695.496 c -8.625,0 -15.613,7 -15.613,15.61 0,8.63 6.988,15.62 15.613,15.62 h 245.277 c 8.622,0 15.614,-6.99 15.614,-15.62 0,-8.61 -6.992,-15.61 -15.614,-15.61 z M 864.07,932.672 H 696.16 c -8.621,0 -15.609,6.988 -15.609,15.609 0,8.629 6.988,15.617 15.609,15.617 h 167.91 c 8.625,0 15.614,-6.988 15.614,-15.617 0,-8.621 -6.989,-15.609 -15.614,-15.609 z m -1.242,-53.91 H 740.473 c -8.618,0 -15.606,6.988 -15.606,15.617 0,8.621 6.988,15.609 15.606,15.609 h 122.355 c 8.621,0 15.61,-6.988 15.61,-15.609 0,-8.629 -6.989,-15.617 -15.61,-15.617 z M 745.945,825.281 h -5.797 c -8.437,0 -15.281,6.828 -15.281,15.27 0,8.437 6.844,15.269 15.281,15.269 h 5.797 c 8.446,0 15.285,-6.832 15.285,-15.269 0,-8.442 -6.839,-15.27 -15.285,-15.27 z M 734.098,1125.3 h 45.156 c 8.621,0 15.605,-7.01 15.605,-15.62 0,-8.62 -6.984,-15.62 -15.605,-15.62 h -45.156 c -8.618,0 -15.618,7 -15.618,15.62 0,8.61 7,15.62 15.618,15.62 z m 53.011,269.12 h 22.786 c 8.625,0 15.613,-6.99 15.613,-15.62 0,-8.61 -6.988,-15.6 -15.613,-15.6 h -22.786 c -8.617,0 -15.605,6.99 -15.605,15.6 0,8.63 6.988,15.62 15.605,15.62 z m 47.555,53.83 h 8.035 c 8.621,0 15.617,-6.98 15.617,-15.62 0,-8.62 -6.996,-15.6 -15.617,-15.6 h -8.035 c -8.625,0 -15.617,6.98 -15.617,15.6 0,8.64 6.992,15.62 15.617,15.62 z m 38.277,-53.83 H 974.73 c 8.715,0 15.79,-6.99 15.79,-15.62 0,-8.61 -7.075,-15.6 -15.79,-15.6 H 872.941 c -8.722,0 -15.789,6.99 -15.789,15.6 0,8.63 7.067,15.62 15.789,15.62 z m 82.036,38.21 c 0,-8.62 -6.989,-15.6 -15.614,-15.6 h -28.91 c -8.617,0 -15.613,6.98 -15.613,15.6 0,8.64 6.996,15.62 15.613,15.62 h 28.91 c 8.625,0 15.614,-6.98 15.614,-15.62 z m -49.493,69.44 h 57.739 c 8.617,0 15.617,-6.98 15.617,-15.59 0,-8.64 -7,-15.62 -15.617,-15.62 h -57.739 c -8.621,0 -15.617,6.98 -15.617,15.62 0,8.61 6.996,15.59 15.617,15.59 z m 14.168,53.84 h 18.141 c 8.617,0 15.613,-6.99 15.613,-15.61 0,-8.62 -6.996,-15.62 -15.613,-15.62 h -18.141 c -8.632,0 -15.613,7 -15.613,15.62 0,8.62 6.981,15.61 15.613,15.61 z m 39.016,-246.53 H 821.91 c -8.629,0 -15.617,6.98 -15.617,15.6 0,8.64 6.988,15.62 15.617,15.62 h 136.758 c 8.617,0 15.613,-6.98 15.613,-15.62 0,-8.62 -6.996,-15.6 -15.613,-15.6 z M 1300.02,963.73 h 84.08 c 8.62,0 15.62,-6.992 15.62,-15.609 0,-8.633 -7,-15.621 -15.62,-15.621 h -84.08 c -8.62,0 -15.61,6.988 -15.61,15.621 0,8.617 6.99,15.609 15.61,15.609 z m 85.41,-84.968 h -47.47 c -8.62,0 -15.61,6.988 -15.61,15.617 0,8.621 6.99,15.609 15.61,15.609 h 47.47 c 8.62,0 15.61,-6.988 15.61,-15.609 0,-8.629 -6.99,-15.617 -15.61,-15.617 z m 37.15,-38.211 c 0,-8.442 -6.85,-15.27 -15.28,-15.27 h -8.86 c -8.45,0 -15.3,6.828 -15.3,15.27 0,8.437 6.85,15.269 15.3,15.269 h 8.86 c 8.43,0 15.28,-6.832 15.28,-15.269 z m 120.14,15.269 h 10.86 c 8.45,0 15.29,-6.832 15.29,-15.269 0,-8.442 -6.84,-15.27 -15.29,-15.27 h -10.86 c -8.43,0 -15.28,6.828 -15.28,15.27 0,8.437 6.85,15.269 15.28,15.269 z m -447.63,538.6 h 7.8 c 8.61,0 15.6,-6.99 15.6,-15.62 0,-8.61 -6.99,-15.6 -15.6,-15.6 h -7.8 c -8.63,0 -15.61,6.99 -15.61,15.6 0,8.63 6.98,15.62 15.61,15.62 z m 6.79,107.65 h 160.54 c 8.62,0 15.61,-6.98 15.61,-15.59 0,-8.64 -6.99,-15.62 -15.61,-15.62 h -160.54 c -8.61,0 -15.61,6.98 -15.61,15.62 0,8.61 7,15.59 15.61,15.59 z m 0,53.84 h 117.54 c 8.63,0 15.63,-6.99 15.63,-15.61 0,-8.62 -7,-15.62 -15.63,-15.62 h -117.54 c -8.61,0 -15.61,7 -15.61,15.62 0,8.62 7,15.61 15.61,15.61 z m 76.88,53.81 h 82.74 c 8.64,0 15.62,-6.97 15.62,-15.59 0,-8.63 -6.98,-15.62 -15.62,-15.62 h -82.74 c -8.63,0 -15.62,6.99 -15.62,15.62 0,8.62 6.99,15.59 15.62,15.59 z m 0,53.83 h 82.74 c 8.64,0 15.62,-6.98 15.62,-15.6 0,-8.64 -6.98,-15.61 -15.62,-15.61 h -82.74 c -8.63,0 -15.62,6.97 -15.62,15.61 0,8.62 6.99,15.6 15.62,15.6 z m 43.16,-246.52 h -41.34 c -8.63,0 -15.61,6.98 -15.61,15.6 0,8.64 6.98,15.62 15.61,15.62 h 41.34 c 8.62,0 15.61,-6.98 15.61,-15.62 0,-8.62 -6.99,-15.6 -15.61,-15.6 z m -1.5,-53.83 h -38.85 c -8.61,0 -15.61,6.99 -15.61,15.6 0,8.63 7,15.62 15.61,15.62 h 38.85 c 8.63,0 15.61,-6.99 15.61,-15.62 0,-8.61 -6.98,-15.6 -15.61,-15.6 z m 424.36,-307.35 c 0,8.62 6.99,15.62 15.61,15.62 h 51.42 c 1.05,7.49 1.97,15.03 2.73,22.59 h -134.83 c -8.62,0 -15.61,7 -15.61,15.62 0,8.61 6.99,15.62 15.61,15.62 h 137.09 c 0.34,7.5 0.53,15.03 0.57,22.58 h -42.64 -36.12 -46.38 -28.85 -106.67 -46.4 -28.83 -7.27 -28.84 -46.39 -106.68 -28.83 -46.39 -36.12 -181.901 c -8.625,0 -15.618,7.01 -15.618,15.62 0,8.63 6.993,15.62 15.618,15.62 h 181.891 0.01 36.12 v 0 h 46.39 v 0 h 132.68 2.82 c 0.01,0 0.01,0 0.01,0 h 46.39 v 0 h 36.11 v 0 h 181.9 v 0 h 153.34 c -0.37,7.57 -0.88,15.11 -1.53,22.6 h -82.21 -36.12 -46.38 -28.84 -106.68 -46.39 -28.84 -7.27 -28.84 -46.39 -106.68 -28.83 -46.39 -36.12 -181.905 c -8.617,0 -15.606,6.99 -15.606,15.61 0,8.62 6.989,15.62 15.606,15.62 H 1039.2 c 0.01,0 0.01,0 0.01,0 h 36.12 v 0 h 46.39 v 0 h 132.68 2.83 v 0 h 46.39 v 0 h 36.11 v 0 h 181.9 0.01 189.9 c -1.09,7.58 -2.34,15.12 -3.74,22.61 h -131.8 -46.4 -28.83 -189.19 -28.84 -46.38 -218.03 c -8.62,0 -15.6,6.98 -15.6,15.59 0,8.64 6.98,15.62 15.6,15.62 h 218.02 c 0.01,0 0.01,0 0.01,0 h 46.38 v 0 h 134.44 83.58 c 0,0 0,0 0.01,0 h 200.3 c -1.86,7.61 -3.88,15.13 -6.05,22.61 h -79.73 -46.37 -28.84 -189.19 -28.84 -46.39 -218.01 c -8.63,0 -15.62,6.98 -15.62,15.6 0,8.64 6.99,15.62 15.62,15.62 h 218 0.01 46.39 v 0 h 134.42 83.6 c 0,0 0,0 0.01,0 h 144.88 c -2.69,7.62 -5.56,15.15 -8.57,22.6 h -42.2 -75.23 -218.02 c -8.63,0 -15.62,6.99 -15.62,15.6 0,8.63 6.99,15.62 15.62,15.62 h 218.01 c 0,0 0,0 0.01,0 h 103.7 c -3.64,7.64 -7.43,15.18 -11.39,22.61 h -17.08 -75.23 -218.02 c -8.63,0 -15.62,6.98 -15.62,15.6 0,8.64 6.99,15.62 15.62,15.62 h 218.01 c 0,0 0,0 0.01,0 h 74.37 c -4.73,7.66 -9.63,15.19 -14.7,22.61 H 1419.8 c -8.62,0 -15.61,7 -15.61,15.62 0,8.61 6.99,15.59 15.61,15.59 h 175.83 c -6.08,7.71 -12.36,15.25 -18.83,22.61 h -278.27 c -8.63,0 -15.61,7 -15.61,15.62 0,8.62 6.98,15.61 15.61,15.61 h 248.69 c -7.93,7.77 -16.11,15.3 -24.5,22.6 h -181.78 c -8.63,0 -15.62,6.99 -15.62,15.62 0,8.62 6.99,15.59 15.62,15.59 h 142.54 c -10.92,7.93 -22.12,15.47 -33.61,22.62 h -108.93 c -8.63,0 -15.62,6.99 -15.62,15.61 0,8.62 6.99,15.6 15.62,15.6 h 51.58 c -17.96,8.49 -36.43,16.04 -55.35,22.61 H 1229.7 c -8.64,0 -15.62,7 -15.62,15.62 0,4.59 1.99,8.7 5.15,11.57 -22.27,2.65 -44.93,4.04 -67.92,4.04 -124.1,0 -238.865,-39.93 -332.158,-107.67 h 16.918 c 8.625,0 15.614,-6.97 15.614,-15.59 0,-8.63 -6.989,-15.62 -15.614,-15.62 h -56.172 c -119.277,-103.79 -194.671,-256.7 -194.671,-427.22 0,-312.622 253.441,-566.079 566.083,-566.079 166.32,0 315.88,71.73 419.45,185.937 -8.23,0.43 -14.77,7.223 -14.77,15.571 0,8.621 6.98,15.621 15.6,15.621 h 25.48 c 18.81,24 35.71,49.539 50.51,76.422 h -146.23 c -8.62,0 -15.62,6.988 -15.62,15.617 0,8.621 7,15.609 15.62,15.609 h 162.18 c 3.49,7.422 6.84,14.922 10.02,22.512 h -29.39 -181.9 c -8.63,0 -15.62,6.988 -15.62,15.621 0,8.617 6.99,15.609 15.62,15.609 h 181.89 c 0.01,0 0.01,0 0.01,0 h 36.11 v 0 h 5.31 c 2.63,7.489 5.09,15.059 7.42,22.68 h -34.26 -106.69 -28.84 -46.37 -36.13 -181.89 c -8.63,0 -15.63,7 -15.63,15.61 0,8.63 7,15.62 15.63,15.62 h 181.89 v 0 h 36.13 v 0 h 46.37 v 0 h 132.69 2.83 c 0,0 0,0 0.01,0 h 42.78 c 1.81,7.47 3.46,15.01 4.97,22.62 h -46.1 c -8.62,0 -15.61,6.97 -15.61,15.59" /></g></g><path
         id="path38"
         style="fill:#ffffff;fill-opacity:1;fill-rule:nonzero;stroke:none"
         d="m 1662.36,1637.71 75.38,262.61 c 2.89,9.5 3.9,18.95 -8.1,28.45 l -10.37,7.76 c -12.32,9.19 -21.18,5.79 -29.59,0.2 l -228.56,-148.75 48.29,-26.97 164.97,107.09 -25.71,-90.36 -21.71,16.75 -43.63,-28.33 50.4,-38.67 -14.49,-50.71 43.12,-39.07" /><path
         id="path40"
         style="fill:#ffffff;fill-opacity:1;fill-rule:nonzero;stroke:none"
         d="m 717.094,1754.7 c -13.942,-11.16 -30.903,-17.24 -46.231,-15.36 -18.672,2.09 -30.383,9.71 -48.363,31.68 l -90.887,111.71 -40.453,-32.62 99.594,-122.31 c 21.101,-25.72 44.742,-39.39 72.199,-41.87 31.492,-2.9 59.426,6.48 87.051,28.69 27.367,22.66 42.012,48.08 45.754,78.99 2.972,27.9 -5.403,53.81 -26.125,79.45 l -99.738,122.42 -40.5,-32.89 91.23,-111.89 c 17.875,-21.81 23.027,-35.09 21.238,-53.72 -1.261,-15.33 -10.48,-30.72 -24.769,-42.28" /><path
         id="path42"
         style="fill:#ffffff;fill-opacity:1;fill-rule:nonzero;stroke:none"
         d="m 1374.08,2043.29 93.77,-24.64 12.32,47.37 -96.72,25.48 c -44.74,11.62 -86.36,0.79 -100.94,-54.75 l -42.87,-163.52 c -3.01,-11.45 3.2,-20.7 14.12,-23.76 l 31.78,-8.11 27.35,105.78 116.55,-30.69 12.29,46.78 -116.57,30.54 6.34,24.36 c 6.91,27.32 18.1,31.21 42.58,25.16" /><path
         id="path44"
         style="fill:#ffffff;fill-opacity:1;fill-rule:nonzero;stroke:none"
         d="m 1053.47,2119.25 -160.755,-32.71 c -11.188,-2.29 -17.973,-10.89 -15.508,-23.09 l 33.984,-165.49 c 11.207,-56.6 52.469,-69.37 97.809,-59.96 l 97.77,20.05 -9.76,47.92 -95.08,-19.2 c -24.157,-4.97 -35.477,-0.31 -40.739,27.19 l -5.234,24.6 118.093,24.28 -9.39,47.14 -118.222,-23.76 -12.18,58.58 129.292,26.51 -10.08,47.94" /><path
         id="path46"
         style="fill:#b7b7b8;fill-opacity:1;fill-rule:nonzero;stroke:none"
         d="m 1151.3,2302.6 c -78.05,0 -156.073,-7.86 -231.921,-23.39 -73.969,-15.14 -146.723,-37.72 -216.25,-67.12 C 634.895,2183.23 569.082,2147.51 507.523,2105.91 446.586,2064.74 389.277,2017.47 337.207,1965.38 285.133,1913.32 237.855,1856.01 196.68,1795.07 155.102,1733.52 119.379,1667.72 90.5117,1599.48 61.1094,1529.95 38.5273,1457.19 23.3906,1383.23 7.86719,1307.39 0,1229.35 0,1151.31 0,1073.24 7.86719,995.219 23.3906,919.379 38.5273,845.41 61.1094,772.648 90.5117,703.141 119.379,634.891 155.102,569.078 196.68,507.531 237.855,446.59 285.133,389.281 337.207,337.219 389.277,285.141 446.586,237.84 507.523,196.691 569.082,155.09 634.895,119.379 703.129,90.5117 772.656,61.1211 845.41,38.5391 919.379,23.3906 995.227,7.85938 1073.25,0 1151.3,0 c 78.05,0 156.07,7.85938 231.91,23.3906 73.98,15.1485 146.73,37.7305 216.26,67.1211 68.23,28.8673 134.05,64.5783 195.6,106.1793 60.95,41.149 118.25,88.45 170.32,140.528 52.07,52.062 99.36,109.371 140.53,170.312 41.58,61.547 77.3,127.36 106.17,195.61 29.39,69.507 51.99,142.269 67.12,216.238 15.52,75.84 23.39,153.861 23.39,231.931 0,78.04 -7.87,156.08 -23.39,231.92 -15.13,73.96 -37.73,146.72 -67.12,216.25 -28.87,68.24 -64.59,134.04 -106.17,195.59 -41.17,60.94 -88.46,118.25 -140.53,170.31 -52.07,52.09 -109.37,99.36 -170.32,140.53 -61.55,41.6 -127.37,77.32 -195.6,106.18 -69.53,29.4 -142.28,51.98 -216.26,67.12 -75.84,15.53 -153.86,23.39 -231.91,23.39 z m 0,-99.4 c 580.95,0 1051.89,-470.95 1051.89,-1051.89 C 2203.19,570.352 1732.25,99.4102 1151.3,99.4102 570.352,99.4102 99.4023,570.352 99.4023,1151.31 99.4023,1732.25 570.352,2203.2 1151.3,2203.2" /></g></g></svg>